<svg xmlns="http://www.w3.org/2000/svg" width="20px" height="20px" viewBox="0 0 20 20"><g fill="#15b746" fill-rule="evenodd" clip-rule="evenodd"><path d="M3.278 9.121c.537-.536.95-1.562.935-2.32a2.65 2.65 0 0 1 .778-1.932a2.65 2.65 0 0 1 2.014-.775c.714.036 1.616-.31 2.12-.816a2.66 2.66 0 0 1 3.76 0c.505.505 1.406.852 2.12.816a2.65 2.65 0 0 1 2.015.775a2.65 2.65 0 0 1 .777 1.933c-.015.757.4 1.784.935 2.32a2.663 2.663 0 0 1-.006 3.765c-.528.528-.914 1.438-.928 2.184a2.65 2.65 0 0 1-.778 1.826a2.65 2.65 0 0 1-1.748.775c-.791.04-1.827.5-2.387 1.06a2.66 2.66 0 0 1-3.76 0c-.56-.56-1.595-1.02-2.386-1.06a2.65 2.65 0 0 1-1.748-.775a2.65 2.65 0 0 1-.778-1.824c-.015-.748-.406-1.664-.935-2.193a2.66 2.66 0 0 1 0-3.759" opacity="0.2"/><path d="M4.198 4.077a1.65 1.65 0 0 0-.485 1.205c.01.55-.13 1.132-.333 1.636c-.203.505-.506 1.022-.894 1.411a1.66 1.66 0 0 0 0 2.345c.71.711 1.206 1.873 1.227 2.879a1.654 1.654 0 0 0 1.575 1.621c.55.027 1.129.194 1.637.42c.507.225 1.019.542 1.408.931a1.66 1.66 0 0 0 2.345 0c.389-.389.9-.706 1.408-.932c.508-.225 1.087-.392 1.637-.419a1.653 1.653 0 0 0 1.575-1.623c.02-1.002.509-2.159 1.22-2.87a1.663 1.663 0 0 0 .007-2.352c-.388-.388-.69-.905-.894-1.41s-.344-1.087-.333-1.637a1.65 1.65 0 0 0-.486-1.205a1.65 1.65 0 0 0-1.256-.484c-.996.05-2.173-.402-2.878-1.107a1.66 1.66 0 0 0-2.345 0c-.705.705-1.882 1.157-2.878 1.107a1.65 1.65 0 0 0-1.257.484M2.713 5.3c.015.758-.398 1.785-.935 2.321a2.66 2.66 0 0 0 0 3.759c.53.529.92 1.445.935 2.192c.014.662.273 1.32.778 1.825a2.65 2.65 0 0 0 1.748.775c.791.04 1.827.499 2.387 1.06a2.66 2.66 0 0 0 3.759 0c.56-.561 1.596-1.02 2.387-1.06a2.65 2.65 0 0 0 1.748-.775a2.65 2.65 0 0 0 .777-1.826c.015-.747.4-1.656.929-2.184a2.663 2.663 0 0 0 .006-3.766c-.536-.536-.95-1.562-.934-2.32a2.65 2.65 0 0 0-.778-1.933a2.65 2.65 0 0 0-2.015-.775c-.714.036-1.615-.31-2.12-.816a2.66 2.66 0 0 0-3.76 0c-.504.506-1.406.852-2.12.816a2.65 2.65 0 0 0-2.014.775A2.65 2.65 0 0 0 2.713 5.3"/><path d="M12.298 6.564a.5.5 0 0 1 .194.68l-2.777 5a.5.5 0 1 1-.874-.486l2.777-5a.5.5 0 0 1 .68-.194"/><path d="M6.11 9.466a.5.5 0 0 1 .702-.078L9.59 11.61a.5.5 0 0 1-.625.781L6.188 10.17a.5.5 0 0 1-.078-.703"/></g></svg>